<mxfile host="app.diagrams.net" modified="2024-09-09T11:25:27.964Z" agent="Mozilla/5.0 (Windows NT 10.0; Win64; x64) AppleWebKit/537.36 (KHTML, like Gecko) Chrome/127.0.0.0 Safari/537.36" version="24.4.13" etag="nzVsxhcX3U5q4m5X-mVp" type="github">
  <diagram name="Page-1" id="oSsc3I24_TONWphvU9xI">
    <mxGraphModel>
      <root>
        <mxCell id="0" />
        <mxCell id="1" parent="0" />
      </root>
    </mxGraphModel>
  </diagram>
</mxfile>
